<svg xmlns="http://www.w3.org/2000/svg" data-name="Camada 1" viewBox="0 0 1080 1080"><path fill="#1a3293" fill-rule="evenodd" d="M344 341c-38 0-29-2-77 2-33 3-88 14-110 39l20 10 20 10c31 15 98 44 126 55 39 15 135 51 179 42l12-3c-1 10-21 33-27 40a155 155 0 0 1-17 17l-27 23-9 7c-17 13-44 32-61 42l-20 12-22 13-21 12-22 12-91 44 1 1h6a1873 1873 0 0 0 413-99c49-18 76-38 103-83 13-21 26-54 36-77l24-69c2-5 6-6 10-9l46-28c12-8 28-28 36-39 9-13 6-11 22-16 40-11 95-9 136-3l38 7 12 2c-2-4-10-6-15-8-48-21-100-24-153-27-32-2-43-2-72-11-33-11-54-18-88-5-34 12-67 51-91 78-10 11-25 33-32 40-12 13-12 9-33 5-54-13-109-21-164-28l-44-5-44-3z"/><path fill="#99cf16" fill-rule="evenodd" d="M0 833c23-20 46-30 77-39 74-22 126-14 199-33 20-6 69-23 75-42-38 11-58 13-98 18l-54 4-54 4c-51 6-87 21-120 55-7 6-21 24-25 33z"/><path fill="#f60" fill-rule="evenodd" d="M439 721l17-11c28-14 74-24 106-30l47-7a187 187 0 0 0 127-91c-33 32-93 55-148 70a688 688 0 0 0-81 27c-22 8-58 27-68 42z"/><path fill="#f0047f" fill-rule="evenodd" d="M132 498c58-24 222 41 317 19-110 69-228-18-317-19z"/></svg>